<?xml version='1.0' encoding='utf-8'?>
<svg xmlns="http://www.w3.org/2000/svg" width="1920" height="1080" viewBox="0 0 1920 1080" data-theme="dark">
  <style>
        @font-face {
            font-family: 'Inter';
            src: url('assets/fonts/Inter-Regular.ttf') format('truetype');
            font-weight: 400;
            font-style: normal;
            font-display: swap;
        }
        @font-face {
            font-family: 'Inter';
            src: url('assets/fonts/Inter-Bold.ttf') format('truetype');
            font-weight: 600;
            font-style: normal;
            font-display: swap;
        }
        @font-face {
            font-family: 'Inter';
            src: url('assets/fonts/Inter-Bold.ttf') format('truetype');
            font-weight: 800;
            font-style: normal;
            font-display: swap;
        }
        
:root {
    --background: #0f172a;
    --panel: #1e293b;
    --primary-text: #f1f5f9;
    --muted-text: #94a3b8;
    --inverse-text: #0f172a;
    --border: #334155;
    --shadow-color: #000000;
    --icon-pad-bg: #1e293b;
    --art-glow: #7dd3fc;
    --art-glow-opacity: 0.18;
    --art-sheen: #ffffff;
    --art-sheen-opacity: 0.18;
    --art-shadow: #000000;
    --art-shadow-opacity: 0.28;
    --art-muted-line: #64748b;
    --art-panel-tint: #1e293b;
    --font-family: 'Inter', 'Segoe UI', 'Kalam', Roboto, Helvetica, Arial, sans-serif;
    --radius-xl: 16px;
    --font-family-headline: 'Inter', 'Segoe UI', 'Kalam', Roboto, Helvetica, Arial, sans-serif;
    --font-family-body: 'Inter', 'Segoe UI', 'Kalam', Roboto, Helvetica, Arial, sans-serif;
    --font-heading: 'Inter', 'Segoe UI', 'Kalam', Roboto, Helvetica, Arial, sans-serif;
    --font-body: 'Inter', 'Segoe UI', 'Kalam', Roboto, Helvetica, Arial, sans-serif;
    --font-size-h1: 56px;
    --font-size-h2: 40px;
    --font-size-h3: 28px;
    --font-size-body: 24px;
    --font-size-caption: 18px;
    --secondary-text: var(--muted-text);
    --panel-border: var(--border);
    --font-weight-normal: 400;
    --font-weight-medium: 500;
    --font-weight-semibold: 600;
    --font-weight-bold: 700;
    --spacing-gutter-pct: 0.07;
    --spacing-top-pct: 0.15;
    --spacing-bottom-pct: 0.07;
    --spacing-title-y-pct: 0.055;
    --accent-1: #93c5fd;
    --accent-2: #86efac;
    --accent-3: #fcd34d;
    --accent-4: #f9a8d4;
    --accent-5: #c4b5fd;
    --accent-6: #a5f3fc;
}
:root[data-theme="dark"] {
    --background: #0f172a;
    --panel: #1e293b;
    --primary-text: #f1f5f9;
    --muted-text: #94a3b8;
    --inverse-text: #0f172a;
    --border: #334155;
    --shadow-color: #000000;
    --icon-pad-bg: #1e293b;
    --art-glow: #7dd3fc;
    --art-glow-opacity: 0.18;
    --art-sheen: #ffffff;
    --art-sheen-opacity: 0.18;
    --art-shadow: #000000;
    --art-shadow-opacity: 0.28;
    --art-muted-line: #64748b;
    --art-panel-tint: #1e293b;
    --accent-1: #93c5fd;
    --accent-2: #86efac;
    --accent-3: #fcd34d;
    --accent-4: #f9a8d4;
    --accent-5: #c4b5fd;
    --accent-6: #a5f3fc;
}
:root[data-theme="light"] {
    --background: #f8fafc;
    --panel: #ffffff;
    --primary-text: #0f172a;
    --muted-text: #64748b;
    --inverse-text: #ffffff;
    --border: #e2e8f0;
    --shadow-color: #000000;
    --icon-pad-bg: #1e293b;
    --art-glow: #0891b2;
    --art-glow-opacity: 0.10;
    --art-sheen: #ffffff;
    --art-sheen-opacity: 0.34;
    --art-shadow: #0f172a;
    --art-shadow-opacity: 0.14;
    --art-muted-line: #94a3b8;
    --art-panel-tint: #f1f5f9;
    --accent-1: #3b82f6;
    --accent-2: #22c55e;
    --accent-3: #f59e0b;
    --accent-4: #ec4899;
    --accent-5: #8b5cf6;
    --accent-6: #06b6d4;
}</style>
  <rect x="0" y="0" width="1.92E+3" height="1.08E+3" fill="#252a34" stroke="none" id="programmatic_background"/>
  <line id="HEADER_DECOR" x1="960.0" x2="1080.0" y1="135.0" y2="135.0" stroke="var(--accent-1)" stroke-width="6" stroke-linecap="round"/>
  <defs>
    <pattern id="svge18c0d6b-napkin-hatch" patternUnits="userSpaceOnUse" width="12" height="12">
      <path d="M -3 12 L 12 -3 M 0 15 L 15 0" fill="none" stroke="var(--primary-text)" stroke-width="1" stroke-opacity="0.05"/>
    </pattern>
    <filter id="svge18c0d6b-shadow" x="-30%" y="-30%" width="160%" height="160%">
      <feDropShadow dx="0" dy="2" stdDeviation="3" flood-color="#000000" flood-opacity="0.08"/>
      <feDropShadow dx="0" dy="6" stdDeviation="10" flood-color="#000000" flood-opacity="0.12"/>
    </filter>
    <marker id="svge18c0d6b-arrowhead" markerWidth="10" markerHeight="10" refX="9" refY="5" orient="auto">
      <path d="M 0 0 L 10 5 L 0 10 Z" fill="var(--accent-1)"/>
    </marker>
    <filter id="svge18c0d6b-text-glow" x="-20%" y="-20%" width="140%" height="140%">
      <feDropShadow dx="0" dy="0" stdDeviation="2" flood-color="#000000" flood-opacity="0.4"/>
    </filter>
    <radialGradient id="svge18c0d6b-universal-edge-vignette" cx="50%" cy="50%" r="72%">
      <stop offset="0%" stop-color="var(--background)" stop-opacity="0"/>
      <stop offset="72%" stop-color="var(--background)" stop-opacity="0.12"/>
      <stop offset="100%" stop-color="var(--primary-text)" stop-opacity="0.08"/>
    </radialGradient>
    <linearGradient id="svge18c0d6b-universal-surface-sheen" x1="0%" y1="0%" x2="100%" y2="100%">
      <stop offset="0%" stop-color="var(--art-sheen)" stop-opacity="var(--art-sheen-opacity)"/>
      <stop offset="46%" stop-color="var(--art-sheen)" stop-opacity="0.035"/>
      <stop offset="100%" stop-color="var(--art-panel-tint)" stop-opacity="0.14"/>
    </linearGradient>
    <radialGradient id="svge18c0d6b-universal-icon-aura" cx="50%" cy="42%" r="64%">
      <stop offset="0%" stop-color="var(--art-glow)" stop-opacity="var(--art-glow-opacity)"/>
      <stop offset="100%" stop-color="var(--background)" stop-opacity="0"/>
    </radialGradient>
  </defs>
  <rect width="100%" height="100%" fill="var(--background)" id="CANVAS_BG"/>
  <rect width="100%" height="100%" fill="url(#svge18c0d6b-napkin-hatch)"/>
  <rect id="UNIVERSAL_EDGE_VIGNETTE" width="100%" height="100%" fill="url(#svge18c0d6b-universal-edge-vignette)" opacity="0.62"/>
  <text id="TITLE" x="960.0" y="59" text-anchor="middle" font-weight="700" font-size="72" fill="#f1f5f9" style="font-size: 60px; font-family: Inter, Segoe UI, Kalam, Roboto, Helvetica, Arial, sans-serif; font-weight: 700; letter-spacing:-1.2px;" data-final-font-size="60">
    <tspan x="960.0" dy="68.00px">Official UAP Investigation Findings</tspan>
  </text>
  <rect id="TITLE_FRAME" x="134" y="59" width="1652" height="103" fill="none"/>
  <g id="DIAGRAM_SCALER" transform="translate(28.8, 27.0) scale(0.97)">
    <path d="M 960 360 L 960 450" stroke="var(--muted-text)" stroke-width="3.0" fill="none" opacity="0.52"/>
    <path d="M 160.0 450 L 1760.0 450" stroke="var(--muted-text)" stroke-width="3.0" fill="none" opacity="0.52"/>
    <path d="M 160.0 450 L 160.0 570" stroke="var(--muted-text)" stroke-width="3.0" fill="none" opacity="0.52"/>
    <path d="M 560.0 450 L 560.0 570" stroke="var(--muted-text)" stroke-width="3.0" fill="none" opacity="0.52"/>
    <path d="M 960.0 450 L 960.0 570" stroke="var(--muted-text)" stroke-width="3.0" fill="none" opacity="0.52"/>
    <path d="M 1360.0 450 L 1360.0 570" stroke="var(--muted-text)" stroke-width="3.0" fill="none" opacity="0.52"/>
    <path d="M 1760.0 450 L 1760.0 570" stroke="var(--muted-text)" stroke-width="3.0" fill="none" opacity="0.52"/>
    <g transform="translate(960.0, 270.0)">
      <rect id="ITEM_1_BG" x="-210" y="-90" width="420" height="180" rx="24" fill="var(--panel)" fill-opacity="0.86" stroke="var(--primary-text)" stroke-width="2.6"/>
      <circle id="ITEM_1_PAD" cx="0" cy="40" r="42" fill="var(--icon-pad-bg)" stroke="var(--primary-text)" opacity="0.9" fill-opacity="0.9" stroke-width="2"/>
      <circle id="ITEM_1_PAD_INNER" cx="0" cy="40" r="32.76" fill="var(--accent-6)" fill-opacity="0.22"/>
      <circle cx="0" cy="40" r="33.6" fill="none" stroke="var(--accent-1)" stroke-width="3" stroke-dasharray="6 4"/>
      <g id="ITEM_1_ICON" transform="translate(-36.0, 4.0)" data-icon-size="72">
        <g transform="translate(-5.142857142857143,-7.714285714285717) scale(2.5714285714285716)">
          <path d="M15.385 7.39062L12.9075 4.915C12.3219 4.32875 11.5275 4 10.6987 4H4.125C2.95125 4 2 4.95125 2 6.125V13.5H12.985H30V10.1375C30 8.96375 29.0488 8.0125 27.875 8.0125H16.8875C16.3237 8.0125 15.7838 7.78875 15.385 7.39062Z" fill="#FFB02E"/>
          <path d="M27.875 30H4.125C2.95125 30 2 29.0545 2 27.8878V13.1122C2 11.9455 2.95125 11 4.125 11H27.875C29.0488 11 30 11.9455 30 13.1122V27.8878C30 29.0545 29.0488 30 27.875 30Z" fill="#FCD53F"/>
        </g>
      </g>
      <text id="ITEM_1_HEAD" x="0.0" y="-80.0" text-anchor="middle" font-weight="bold" font-size="36" fill="var(--accent-6)" data-bg-id="ITEM_1_BG" fill-opacity="1.0" stroke="none" style="font-size: 30px; font-family: Inter, Segoe UI, Kalam, Roboto, Helvetica, Arial, sans-serif; font-weight: 700; letter-spacing:-0.4px;" data-final-font-size="30">
        <tspan x="0.0" dy="30.75px">Blue Book Closure</tspan>
      </text>
      <rect id="ITEM_1_HEAD_FRAME" x="-180" y="-80" width="360" height="45" fill="none"/>
    </g>
    <g transform="translate(160.0, 720)">
      <rect id="ITEM_2_BG" x="-150.0" y="-150" width="300" height="390" rx="24" fill="var(--accent-1)" fill-opacity="0.48" stroke="var(--accent-1)" stroke-width="2.6"/>
      <text id="ITEM_2_HEAD" x="0.0" y="12.0" text-anchor="middle" font-weight="bold" font-size="30" fill="var(--primary-text)" data-bg-id="ITEM_2_BG" fill-opacity="1.0" stroke="none" style="font-size: 27px; font-family: Inter, Segoe UI, Kalam, Roboto, Helvetica, Arial, sans-serif; font-weight: 700; letter-spacing:-0.4px;" data-final-font-size="27">
        <tspan x="0.0" dy="31.95px">NASA Study Results</tspan>
      </text>
      <rect id="ITEM_2_HEAD_FRAME" x="-120.0" y="12" width="240" height="51.75" fill="none"/>
      <text id="ITEM_2_BODY" x="0.0" y="75.0" text-anchor="middle" font-size="23" fill="var(--primary-text)" opacity="0.94" data-bg-id="ITEM_2_BG" style="font-size: 26px; font-family: Inter, Segoe UI, Kalam, Roboto, Helvetica, Arial, sans-serif; font-weight: 400;" data-final-font-size="26">
        <tspan x="0.0" dy="32.52px">No conclusive evidence</tspan>
        <tspan x="0.0" dy="29.90px">for extraterrestrial</tspan>
        <tspan x="0.0" dy="29.90px">origin found</tspan>
      </text>
      <rect id="ITEM_2_BODY_FRAME" x="-152" y="75" width="304" height="148.3" fill="none" data-side-overflow-fix="38.0|38.0"/>
      <circle id="ITEM_2_PAD" cx="0" cy="-45.0" r="62" fill="var(--icon-pad-bg)" stroke="var(--background)" stroke-width="2" stroke-opacity="0.65" opacity="0.94" fill-opacity="0.9"/>
      <circle id="ITEM_2_PAD_INNER" cx="0" cy="-45.0" r="48.36" fill="var(--accent-1)" fill-opacity="0.22"/>
      <circle cx="0" cy="-45.0" r="49.6" fill="none" stroke="var(--accent-1)" stroke-width="3" stroke-dasharray="6 4"/>
      <g id="ITEM_2_ICON" transform="translate(-48.0, -93.0)" data-icon-size="96" stroke-dasharray="6 4">
        <g transform="translate(-8.91929203539823,-6.351504424778761) scale(3.423716814159292)">
          <path d="M16.25 29.25C16.25 29.6642 15.9143 30 15.5 30C15.0858 30 14.75 29.6642 14.75 29.25V18.2847L6.35413 29.6945C6.10863 30.0281 5.63916 30.0996 5.30554 29.8541C4.97192 29.6086 4.90047 29.1391 5.14597 28.8055L13.8421 16.9877C13.3669 16.9119 13 16.4964 13 16C13 15.4505 13.4497 15 13.9983 15H14.75V11.75C14.75 11.3358 15.0858 11 15.5 11C15.9143 11 16.25 11.3358 16.25 11.75V15H17.0018C17.5504 15 18 15.4505 18 16C18 16.421 17.7361 16.7839 17.366 16.9306L26.1041 28.8055C26.3496 29.1391 26.2782 29.6086 25.9446 29.8541C25.6109 30.0996 25.1415 30.0281 24.896 29.6945L16.25 17.9449V29.25Z" fill="#7167A4"/>
          <path d="M3.22683 4.27809C2.6088 5.92946 3.30622 7.78583 4.80973 8.60757L5.74923 8.95918L7.99999 8.00013L8.99999 4.00013L8.19939 2.40199L7.26328 2.05165C5.5897 1.68436 3.84485 2.62671 3.22683 4.27809Z" fill="#AEDDFF"/>
          <path d="M22.8343 8.94678L27.5555 10.7137L29 13.0001L28 15.0001L25.7687 15.3837L21.0817 13.6296L20 10.5001L22.8343 8.94678Z" fill="#D3D3D3"/>
          <path d="M8.59557 3.94216L11.9373 3.80078L23.1846 8.01009L20.731 14.566L9.48157 10.3559L7.48633 7.72365L8.59557 3.94216Z" fill="#BEBEBE"/>
          <path d="M11.9459 3.80389L8.19965 2.40186L5.74609 8.95777L9.49233 10.3598L11.9459 3.80389Z" fill="#5235A6"/>
          <path d="M29.39 11.4001L27.5169 10.6991L25.7644 15.3819L27.6375 16.0829C28.1547 16.2765 28.731 16.0141 28.9246 15.4969L29.9761 12.6872C30.1697 12.1699 29.9073 11.5937 29.39 11.4001Z" fill="#5235A6"/>
        </g>
      </g>
    </g>
    <g transform="translate(560.0, 720)">
      <rect id="ITEM_3_BG" x="-150.0" y="-150" width="300" height="390" rx="24" fill="var(--accent-2)" fill-opacity="0.48" stroke="var(--accent-2)" stroke-width="2.6"/>
      <text id="ITEM_3_HEAD" x="0.0" y="12.0" text-anchor="middle" font-weight="bold" font-size="30" fill="var(--primary-text)" data-bg-id="ITEM_3_BG" fill-opacity="1.0" stroke="none" style="font-size: 22px; font-family: Inter, Segoe UI, Kalam, Roboto, Helvetica, Arial, sans-serif; font-weight: 700; letter-spacing:-0.4px;" data-final-font-size="22">
        <tspan x="0.0" dy="30.83px">AARO Historical Record</tspan>
      </text>
      <rect id="ITEM_3_HEAD_FRAME" x="-120.0" y="12" width="240" height="51.75" fill="none"/>
      <text id="ITEM_3_BODY" x="0.0" y="75.0" text-anchor="middle" font-size="23" fill="var(--primary-text)" opacity="0.94" data-bg-id="ITEM_3_BG" style="font-size: 26px; font-family: Inter, Segoe UI, Kalam, Roboto, Helvetica, Arial, sans-serif; font-weight: 400;" data-final-font-size="26">
        <tspan x="0.0" dy="32.52px">No evidence of reverse-</tspan>
        <tspan x="0.0" dy="29.90px">engineered off-world</tspan>
        <tspan x="0.0" dy="29.90px">technology</tspan>
      </text>
      <rect id="ITEM_3_BODY_FRAME" x="-152" y="75" width="304" height="148.3" fill="none" data-side-overflow-fix="38.0|38.0"/>
      <circle id="ITEM_3_PAD" cx="0" cy="-45.0" r="62" fill="var(--icon-pad-bg)" stroke="var(--background)" stroke-width="2" stroke-opacity="0.65" opacity="0.94" fill-opacity="0.9"/>
      <circle id="ITEM_3_PAD_INNER" cx="0" cy="-45.0" r="48.36" fill="var(--accent-2)" fill-opacity="0.22"/>
      <circle cx="0" cy="-45.0" r="49.6" fill="none" stroke="var(--accent-2)" stroke-width="3" stroke-dasharray="6 4"/>
      <g id="ITEM_3_ICON" transform="translate(-48.0, -93.0)" data-icon-size="96" stroke-dasharray="6 4">
        <g transform="translate(-7.268571428571428,-7.70035714285714) scale(3.454285714285714)">
          <path d="M4.71839 18.0233C5.11525 17.458 5.8952 17.3215 6.46045 17.7184L18.5318 26.1936L17.0946 28.2406L5.02328 19.7653C4.45803 19.3685 4.32152 18.5885 4.71839 18.0233Z" fill="#5092FF"/>
          <path d="M18.5013 2.80347C18.8302 2.3598 19.4615 2.25982 19.9114 2.58017L21.5841 3.77124C22.034 4.09158 22.1321 4.71094 21.8032 5.15461L13.1102 16.8809C12.4436 17.7801 11.1641 17.9827 10.2523 17.3335C9.34053 16.6842 9.14176 15.429 9.80835 14.5298L18.5013 2.80347Z" fill="#636363"/>
          <path d="M18.0472 3.66594C16.8384 3.31432 15.3804 3.86071 14.5971 4.91739L11.7749 8.7243L11.9999 10.0001L10.6024 10.306L10.3989 10.5805C9.07399 12.3677 9.47824 14.8692 11.3018 16.1677C13.1254 17.4662 15.6778 17.07 17.0027 15.2828L17.1623 15.0675L16.9999 13.5001H18.3242L18.4883 13.2787C21.992 13.9302 23.8684 16.851 23.963 19.8545C24.0149 21.5041 23.5209 23.1307 22.4806 24.3899C21.4537 25.6329 19.8112 26.6185 17.3793 26.8486C16.5451 26.9276 15.9304 27.6956 16.0062 28.564C16.082 29.4325 16.8197 30.0725 17.6539 29.9935C20.7829 29.6974 23.1847 28.3804 24.7802 26.4491C26.3624 24.5339 27.069 22.1145 26.9946 19.751C26.8719 15.8564 24.6058 11.9837 20.5048 10.5586L21.2008 9.61967C21.9842 8.56299 22.0639 7.03517 21.3491 6.01708L18.0472 3.66594Z" fill="#BEBEBE"/>
          <path d="M2 29.2C2 27.4327 3.43269 26 5.2 26H26.8C28.5673 26 30 27.4327 30 29.2C30 29.6418 29.6418 30 29.2 30H2.8C2.35817 30 2 29.6418 2 29.2Z" fill="#9B9B9B"/>
          <path d="M11.7757 8.70947L18.3343 13.4746L17.1588 15.0927L10.6001 10.3275L11.7757 8.70947Z" fill="#D3D3D3"/>
        </g>
      </g>
    </g>
    <g transform="translate(960.0, 720)">
      <rect id="ITEM_4_BG" x="-150.0" y="-150" width="300" height="390" rx="24" fill="var(--accent-3)" fill-opacity="0.48" stroke="var(--accent-3)" stroke-width="2.6"/>
      <text id="ITEM_4_HEAD" x="0.0" y="12.0" text-anchor="middle" font-weight="bold" font-size="30" fill="var(--primary-text)" data-bg-id="ITEM_4_BG" fill-opacity="1.0" stroke="none" style="font-size: 30px; font-family: Inter, Segoe UI, Kalam, Roboto, Helvetica, Arial, sans-serif; font-weight: 700; letter-spacing:-0.4px;" data-final-font-size="30">
        <tspan x="0.0" dy="34.12px">Unresolved Cases</tspan>
      </text>
      <rect id="ITEM_4_HEAD_FRAME" x="-120.0" y="12" width="240" height="51.75" fill="none"/>
      <text id="ITEM_4_BODY" x="0.0" y="75.0" text-anchor="middle" font-size="23" fill="var(--primary-text)" opacity="0.94" data-bg-id="ITEM_4_BG" style="font-size: 26px; font-family: Inter, Segoe UI, Kalam, Roboto, Helvetica, Arial, sans-serif; font-weight: 400;" data-final-font-size="26">
        <tspan x="0.0" dy="26.54px">Data remains</tspan>
        <tspan x="0.0" dy="29.90px">insufficient or</tspan>
        <tspan x="0.0" dy="29.90px">incomplete for firm</tspan>
        <tspan x="0.0" dy="29.90px">identification</tspan>
      </text>
      <rect id="ITEM_4_BODY_FRAME" x="-152" y="75" width="304" height="148.3" fill="none" data-side-overflow-fix="38.0|38.0"/>
      <circle id="ITEM_4_PAD" cx="0" cy="-45.0" r="62" fill="var(--icon-pad-bg)" stroke="var(--background)" stroke-width="2" stroke-opacity="0.65" opacity="0.94" fill-opacity="0.9"/>
      <circle id="ITEM_4_PAD_INNER" cx="0" cy="-45.0" r="48.36" fill="var(--accent-3)" fill-opacity="0.22"/>
      <circle cx="0" cy="-45.0" r="49.6" fill="none" stroke="var(--accent-3)" stroke-width="3" stroke-dasharray="6 4"/>
      <g id="ITEM_4_ICON" transform="translate(-48.0, -93.0)" data-icon-size="96" stroke-dasharray="6 4">
        <g transform="translate(-4.45830508474577,-4.45830508474577) scale(4.371525423728814)" vector-effect="non-scaling-stroke" stroke-width="2.86" stroke-linecap="round" stroke-linejoin="round" stroke-opacity="1.0">
          <path d="M19.07 4.93A10 10 0 0 0 6.99 3.34" vector-effect="non-scaling-stroke" fill="none" stroke="#f1f5f9"/>
          <path d="M4 6h.01" vector-effect="non-scaling-stroke" fill="none" stroke="#f1f5f9"/>
          <path d="M2.29 9.62A10 10 0 1 0 21.31 8.35" vector-effect="non-scaling-stroke" fill="none" stroke="#f1f5f9"/>
          <path d="M16.24 7.76A6 6 0 1 0 8.23 16.67" vector-effect="non-scaling-stroke" fill="none" stroke="#f1f5f9"/>
          <path d="M12 18h.01" vector-effect="non-scaling-stroke" fill="none" stroke="#f1f5f9"/>
          <path d="M17.99 11.66A6 6 0 0 1 15.77 16.67" vector-effect="non-scaling-stroke" fill="none" stroke="#f1f5f9"/>
          <circle cx="12" cy="12" r="2" vector-effect="non-scaling-stroke" fill="none" stroke="#f1f5f9"/>
          <path d="m13.41 10.59 5.66-5.66" vector-effect="non-scaling-stroke" fill="none" stroke="#f1f5f9"/>
        </g>
      </g>
    </g>
    <g transform="translate(1360.0, 720)">
      <rect id="ITEM_5_BG" x="-150.0" y="-150" width="300" height="390" rx="24" fill="var(--accent-4)" fill-opacity="0.48" stroke="var(--accent-4)" stroke-width="2.6"/>
      <text id="ITEM_5_HEAD" x="0.0" y="12.0" text-anchor="middle" font-weight="bold" font-size="30" fill="var(--primary-text)" data-bg-id="ITEM_5_BG" fill-opacity="1.0" stroke="none" style="font-size: 23px; font-family: Inter, Segoe UI, Kalam, Roboto, Helvetica, Arial, sans-serif; font-weight: 700; letter-spacing:-0.4px;" data-final-font-size="23">
        <tspan x="0.0" dy="31.05px">Ordinary Explanations</tspan>
      </text>
      <rect id="ITEM_5_HEAD_FRAME" x="-120.0" y="12" width="240" height="51.75" fill="none"/>
      <text id="ITEM_5_BODY" x="0.0" y="75.0" text-anchor="middle" font-size="23" fill="var(--primary-text)" opacity="0.94" data-bg-id="ITEM_5_BG" style="font-size: 26px; font-family: Inter, Segoe UI, Kalam, Roboto, Helvetica, Arial, sans-serif; font-weight: 400;" data-final-font-size="26">
        <tspan x="0.0" dy="32.52px">Drones, balloons, and</tspan>
        <tspan x="0.0" dy="29.90px">satellites explain many</tspan>
        <tspan x="0.0" dy="29.90px">sightings</tspan>
      </text>
      <rect id="ITEM_5_BODY_FRAME" x="-152" y="75" width="304" height="148.3" fill="none" data-side-overflow-fix="38.0|38.0"/>
      <circle id="ITEM_5_PAD" cx="0" cy="-45.0" r="62" fill="var(--icon-pad-bg)" stroke="var(--background)" stroke-width="2" stroke-opacity="0.65" opacity="0.94" fill-opacity="0.9"/>
      <circle id="ITEM_5_PAD_INNER" cx="0" cy="-45.0" r="48.36" fill="var(--accent-4)" fill-opacity="0.22"/>
      <circle cx="0" cy="-45.0" r="49.6" fill="none" stroke="var(--accent-4)" stroke-width="3" stroke-dasharray="6 4"/>
      <g id="ITEM_5_ICON" transform="translate(-48.0, -93.0)" data-icon-size="96" stroke-dasharray="6 4">
        <g transform="translate(-9.268421052631581,-7.147368421052631) scale(3.393684210526316)">
          <path d="M13.9351 19.0067L13.9333 19.0087L13.9305 19.012L13.9229 19.0209C13.917 19.0278 13.9095 19.0368 13.9005 19.0478C13.8825 19.0697 13.8585 19.0997 13.8293 19.1378C13.771 19.214 13.692 19.3225 13.5995 19.4635C13.4145 19.7454 13.175 20.1573 12.9379 20.6994C12.4627 21.7854 12 23.3874 12 25.5C12 26.5106 11.7718 27.1659 11.4748 27.5998C11.1789 28.0322 10.7713 28.3082 10.2992 28.4853C9.46918 28.7965 8.56253 28.7737 7.88702 28.7568C7.7472 28.7533 7.61728 28.75 7.5 28.75C7.08579 28.75 6.75 29.0858 6.75 29.5C6.75 29.9142 7.08579 30.25 7.5 30.25C7.56951 30.25 7.66035 30.2529 7.76891 30.2563C8.4143 30.2768 9.68601 30.3172 10.8258 29.8898C11.5204 29.6293 12.2065 29.1866 12.7127 28.4471C13.2178 27.7091 13.5 26.7394 13.5 25.5C13.5 23.6126 13.9123 22.2146 14.3121 21.3006C14.5125 20.8427 14.7105 20.5046 14.8536 20.2865C14.9252 20.1775 14.9829 20.0985 15.0203 20.0497C15.039 20.0253 15.0526 20.0084 15.0602 19.9991L15.067 19.9909L15.066 19.9921L15.0653 19.9929L15.067 19.9909C15.3369 19.6792 15.3046 19.2075 14.9939 18.9356C14.6822 18.6628 14.2078 18.695 13.9351 19.0067Z" fill="#3F5FFF"/>
          <path d="M15.5446 19.0905L13.8083 18.3464C13.3732 18.1599 12.8716 18.3852 12.7219 18.8343C12.5946 19.2163 12.7675 19.6338 13.1277 19.8139L14.8173 20.6587C15.2073 20.8537 15.6815 20.7277 15.9234 20.3649C16.2233 19.9151 16.0415 19.3035 15.5446 19.0905Z" fill="#3F5FFF"/>
          <path d="M27 11C27 15.9706 22.9706 20 18 20C13.0294 20 9 15.9706 9 11C9 6.02944 13.0294 2 18 2C22.9706 2 27 6.02944 27 11Z" fill="#F8312F"/>
          <path d="M15.208 21.648L12.1528 20.2901C11.7825 20.1256 11.5977 19.7067 11.7259 19.3222C11.8728 18.8815 12.3675 18.6633 12.792 18.852L15.8471 20.2098C16.2174 20.3744 16.4022 20.7933 16.2741 21.1777C16.1272 21.6184 15.6325 21.8366 15.208 21.648Z" fill="#CA0B4A"/>
          <path d="M24.1622 6.83776C25.0596 7.7352 25.2669 8.98294 24.6252 9.62465C23.9835 10.2664 22.7358 10.0591 21.8383 9.16161C20.9409 8.26417 20.7336 7.01644 21.3753 6.37473C22.017 5.73301 23.2647 5.94032 24.1622 6.83776Z" fill="#FF8687"/>
        </g>
      </g>
    </g>
    <g transform="translate(1760.0, 720)">
      <rect id="ITEM_6_BG" x="-150.0" y="-150" width="300" height="390" rx="24" fill="var(--accent-5)" fill-opacity="0.48" stroke="var(--accent-5)" stroke-width="2.6"/>
      <text id="ITEM_6_HEAD" x="0.0" y="12.0" text-anchor="middle" font-weight="bold" font-size="30" fill="var(--primary-text)" data-bg-id="ITEM_6_BG" fill-opacity="1.0" stroke="none" style="font-size: 30px; font-family: Inter, Segoe UI, Kalam, Roboto, Helvetica, Arial, sans-serif; font-weight: 700; letter-spacing:-0.4px;" data-final-font-size="30">
        <tspan x="0.0" dy="34.12px">Stigma Reduction</tspan>
      </text>
      <rect id="ITEM_6_HEAD_FRAME" x="-120.0" y="12" width="240" height="51.75" fill="none"/>
      <text id="ITEM_6_BODY" x="0.0" y="75.0" text-anchor="middle" font-size="23" fill="var(--primary-text)" opacity="0.94" data-bg-id="ITEM_6_BG" style="font-size: 26px; font-family: Inter, Segoe UI, Kalam, Roboto, Helvetica, Arial, sans-serif; font-weight: 400;" data-final-font-size="26">
        <tspan x="0.0" dy="32.52px">NASA advocates for</tspan>
        <tspan x="0.0" dy="29.90px">better data collection</tspan>
        <tspan x="0.0" dy="29.90px">without ridicule</tspan>
      </text>
      <rect id="ITEM_6_BODY_FRAME" x="-152" y="75" width="304" height="148.3" fill="none" data-side-overflow-fix="38.0|38.0"/>
      <circle id="ITEM_6_PAD" cx="0" cy="-45.0" r="62" fill="var(--icon-pad-bg)" stroke="var(--background)" stroke-width="2" stroke-opacity="0.65" opacity="0.94" fill-opacity="0.9"/>
      <circle id="ITEM_6_PAD_INNER" cx="0" cy="-45.0" r="48.36" fill="var(--accent-5)" fill-opacity="0.22"/>
      <circle cx="0" cy="-45.0" r="49.6" fill="none" stroke="var(--accent-5)" stroke-width="3" stroke-dasharray="6 4"/>
      <g id="ITEM_6_ICON" transform="translate(-48.0, -93.0)" data-icon-size="96" stroke-dasharray="6 4">
        <g transform="translate(-7.268571428571427,-7.268571428571428) scale(3.454285714285714)">
          <path d="M5 4.5C5 3.67157 5.67157 3 6.5 3H25.5C26.3284 3 27 3.67157 27 4.5V28.5C27 29.3284 26.3284 30 25.5 30H6.5C5.67157 30 5 29.3284 5 28.5V4.5Z" fill="#E19747"/>
          <path d="M25 6C25 5.44772 24.5523 5 24 5H8C7.44772 5 7 5.44772 7 6V27C7 27.5523 7.44772 28 8 28H18.5858C18.7327 28 18.8764 27.9677 19.0071 27.9069L19.3282 27.1239L19.96 23.0379L24.4166 22.255L24.9064 22.0082C24.9675 21.8772 25 21.7332 25 21.5858V6Z" fill="#F3EEF8"/>
          <path d="M24.9102 22H20C19.4477 22 19 22.4477 19 23V27.9102C19.108 27.861 19.2074 27.7926 19.2929 27.7071L24.7071 22.2929C24.7926 22.2074 24.861 22.108 24.9102 22Z" fill="#CDC4D6"/>
          <path d="M18 4C18 2.89543 17.1046 2 16 2C14.8954 2 14 2.89543 14 4H13C11.8954 4 11 4.89543 11 6V7.5C11 7.77614 11.2239 8 11.5 8H20.5C20.7761 8 21 7.77614 21 7.5V6C21 4.89543 20.1046 4 19 4H18ZM17 4C17 4.55228 16.5523 5 16 5C15.4477 5 15 4.55228 15 4C15 3.44772 15.4477 3 16 3C16.5523 3 17 3.44772 17 4Z" fill="#9B9B9B"/>
          <path d="M9 12.5C9 12.2239 9.22386 12 9.5 12H22.5C22.7761 12 23 12.2239 23 12.5C23 12.7761 22.7761 13 22.5 13H9.5C9.22386 13 9 12.7761 9 12.5Z" fill="#9B9B9B"/>
          <path d="M9 15.5C9 15.2239 9.22386 15 9.5 15H22.5C22.7761 15 23 15.2239 23 15.5C23 15.7761 22.7761 16 22.5 16H9.5C9.22386 16 9 15.7761 9 15.5Z" fill="#9B9B9B"/>
          <path d="M9.5 18C9.22386 18 9 18.2239 9 18.5C9 18.7761 9.22386 19 9.5 19H22.5C22.7761 19 23 18.7761 23 18.5C23 18.2239 22.7761 18 22.5 18H9.5Z" fill="#9B9B9B"/>
          <path d="M9 21.5C9 21.2239 9.22386 21 9.5 21H17.5C17.7761 21 18 21.2239 18 21.5C18 21.7761 17.7761 22 17.5 22H9.5C9.22386 22 9 21.7761 9 21.5Z" fill="#9B9B9B"/>
        </g>
      </g>
    </g>
  </g>
</svg>
