<?xml version='1.0' encoding='utf-8'?>
<svg xmlns="http://www.w3.org/2000/svg" width="1920" height="1080" viewBox="0 0 1920 1080" data-theme="light">
  <style>
        @font-face {
            font-family: 'Inter';
            src: url('assets/fonts/Inter-Regular.ttf') format('truetype');
            font-weight: 400;
            font-style: normal;
            font-display: swap;
        }
        @font-face {
            font-family: 'Inter';
            src: url('assets/fonts/Inter-Bold.ttf') format('truetype');
            font-weight: 600;
            font-style: normal;
            font-display: swap;
        }
        @font-face {
            font-family: 'Inter';
            src: url('assets/fonts/Inter-Bold.ttf') format('truetype');
            font-weight: 800;
            font-style: normal;
            font-display: swap;
        }
        
:root {
    --background: #f8fafc;
    --panel: #ffffff;
    --primary-text: #0f172a;
    --muted-text: #64748b;
    --inverse-text: #ffffff;
    --border: #e2e8f0;
    --shadow-color: #000000;
    --icon-pad-bg: #1e293b;
    --art-glow: #0891b2;
    --art-glow-opacity: 0.10;
    --art-sheen: #ffffff;
    --art-sheen-opacity: 0.34;
    --art-shadow: #0f172a;
    --art-shadow-opacity: 0.14;
    --art-muted-line: #94a3b8;
    --art-panel-tint: #f1f5f9;
    --font-family: 'Inter', 'Segoe UI', 'Kalam', Roboto, Helvetica, Arial, sans-serif;
    --radius-xl: 16px;
    --font-family-headline: 'Inter', 'Segoe UI', 'Kalam', Roboto, Helvetica, Arial, sans-serif;
    --font-family-body: 'Inter', 'Segoe UI', 'Kalam', Roboto, Helvetica, Arial, sans-serif;
    --font-heading: 'Inter', 'Segoe UI', 'Kalam', Roboto, Helvetica, Arial, sans-serif;
    --font-body: 'Inter', 'Segoe UI', 'Kalam', Roboto, Helvetica, Arial, sans-serif;
    --font-size-h1: 56px;
    --font-size-h2: 40px;
    --font-size-h3: 28px;
    --font-size-body: 24px;
    --font-size-caption: 18px;
    --secondary-text: var(--muted-text);
    --panel-border: var(--border);
    --font-weight-normal: 400;
    --font-weight-medium: 500;
    --font-weight-semibold: 600;
    --font-weight-bold: 700;
    --spacing-gutter-pct: 0.07;
    --spacing-top-pct: 0.15;
    --spacing-bottom-pct: 0.07;
    --spacing-title-y-pct: 0.055;
    --accent-1: #3b82f6;
    --accent-2: #22c55e;
    --accent-3: #f59e0b;
    --accent-4: #ec4899;
    --accent-5: #8b5cf6;
    --accent-6: #06b6d4;
}
:root[data-theme="dark"] {
    --background: #0f172a;
    --panel: #1e293b;
    --primary-text: #f1f5f9;
    --muted-text: #94a3b8;
    --inverse-text: #0f172a;
    --border: #334155;
    --shadow-color: #000000;
    --icon-pad-bg: #1e293b;
    --art-glow: #7dd3fc;
    --art-glow-opacity: 0.18;
    --art-sheen: #ffffff;
    --art-sheen-opacity: 0.18;
    --art-shadow: #000000;
    --art-shadow-opacity: 0.28;
    --art-muted-line: #64748b;
    --art-panel-tint: #1e293b;
    --accent-1: #93c5fd;
    --accent-2: #86efac;
    --accent-3: #fcd34d;
    --accent-4: #f9a8d4;
    --accent-5: #c4b5fd;
    --accent-6: #a5f3fc;
}
:root[data-theme="light"] {
    --background: #f8fafc;
    --panel: #ffffff;
    --primary-text: #0f172a;
    --muted-text: #64748b;
    --inverse-text: #ffffff;
    --border: #e2e8f0;
    --shadow-color: #000000;
    --icon-pad-bg: #1e293b;
    --art-glow: #0891b2;
    --art-glow-opacity: 0.10;
    --art-sheen: #ffffff;
    --art-sheen-opacity: 0.34;
    --art-shadow: #0f172a;
    --art-shadow-opacity: 0.14;
    --art-muted-line: #94a3b8;
    --art-panel-tint: #f1f5f9;
    --accent-1: #3b82f6;
    --accent-2: #22c55e;
    --accent-3: #f59e0b;
    --accent-4: #ec4899;
    --accent-5: #8b5cf6;
    --accent-6: #06b6d4;
}</style>
  <rect x="0" y="0" width="1.92E+3" height="1.08E+3" fill="#252a34" stroke="none" id="programmatic_background"/>
  <line id="HEADER_DECOR" x1="960.0" x2="1080.0" y1="105.0" y2="105.0" stroke="var(--accent-1)" stroke-width="6" stroke-linecap="round"/>
  <defs>
    <pattern id="svgbc61efb6-napkin-hatch" patternUnits="userSpaceOnUse" width="12" height="12">
      <path d="M -3 12 L 12 -3 M 0 15 L 15 0" fill="none" stroke="var(--primary-text)" stroke-width="1" stroke-opacity="0.05"/>
    </pattern>
    <filter id="svgbc61efb6-shadow" x="-30%" y="-30%" width="160%" height="160%">
      <feDropShadow dx="0" dy="3" stdDeviation="6" flood-color="#000000" flood-opacity="0.10"/>
      <feDropShadow dx="0" dy="8" stdDeviation="12" flood-color="#000000" flood-opacity="0.16"/>
    </filter>
    <radialGradient id="svgbc61efb6-universal-edge-vignette" cx="50%" cy="50%" r="72%">
      <stop offset="0%" stop-color="var(--background)" stop-opacity="0"/>
      <stop offset="72%" stop-color="var(--background)" stop-opacity="0.12"/>
      <stop offset="100%" stop-color="var(--primary-text)" stop-opacity="0.08"/>
    </radialGradient>
    <linearGradient id="svgbc61efb6-universal-surface-sheen" x1="0%" y1="0%" x2="100%" y2="100%">
      <stop offset="0%" stop-color="var(--art-sheen)" stop-opacity="var(--art-sheen-opacity)"/>
      <stop offset="46%" stop-color="var(--art-sheen)" stop-opacity="0.035"/>
      <stop offset="100%" stop-color="var(--art-panel-tint)" stop-opacity="0.14"/>
    </linearGradient>
    <radialGradient id="svgbc61efb6-universal-icon-aura" cx="50%" cy="42%" r="64%">
      <stop offset="0%" stop-color="var(--art-glow)" stop-opacity="var(--art-glow-opacity)"/>
      <stop offset="100%" stop-color="var(--background)" stop-opacity="0"/>
    </radialGradient>
    <linearGradient id="svgbc61efb6-card-panel-sheen" x1="0%" y1="0%" x2="100%" y2="100%">
      <stop offset="0%" stop-color="var(--inverse-text)" stop-opacity="0.20"/>
      <stop offset="48%" stop-color="var(--inverse-text)" stop-opacity="0.04"/>
      <stop offset="100%" stop-color="var(--background)" stop-opacity="0.16"/>
    </linearGradient>
    <radialGradient id="svgbc61efb6-card-icon-glow" cx="50%" cy="35%" r="62%">
      <stop offset="0%" stop-color="var(--inverse-text)" stop-opacity="0.22"/>
      <stop offset="100%" stop-color="var(--background)" stop-opacity="0"/>
    </radialGradient>
    <filter id="svgbc61efb6-text-glow" x="-20%" y="-20%" width="140%" height="140%">
      <feDropShadow dx="0" dy="0" stdDeviation="2" flood-color="#000000" flood-opacity="0.4"/>
    </filter>
    <marker id="svgbc61efb6-arrowhead" markerWidth="10" markerHeight="7" refX="9" refY="3.5" orient="auto" markerUnits="strokeWidth">
      <polygon points="0 0, 10 3.5, 0 7" fill="var(--muted-text)" opacity="0.6"/>
    </marker>
  </defs>
  <rect width="100%" height="100%" fill="var(--background)" id="CANVAS_BG"/>
  <rect width="100%" height="100%" fill="url(#svgbc61efb6-napkin-hatch)"/>
  <rect id="UNIVERSAL_EDGE_VIGNETTE" width="100%" height="100%" fill="url(#svgbc61efb6-universal-edge-vignette)" opacity="0.62"/>
  <text id="TITLE" x="960.0" y="59" font-size="54" font-weight="800" fill="#0f172a" text-anchor="middle" style="font-size: 60px; font-family: Inter, Segoe UI, Kalam, Roboto, Helvetica, Arial, sans-serif; font-weight: 700; letter-spacing:-1.2px;" data-final-font-size="60">
    <tspan x="960.0" dy="68.00px">Literary Motifs of Martian Civilizations</tspan>
  </text>
  <rect id="TITLE_FRAME" x="134" y="35" width="1652" height="78" fill="none"/>
  <rect x="120" y="150" width="1680" height="830" rx="40" fill="var(--panel)" fill-opacity="0.24" stroke="var(--muted-text)" stroke-width="2" opacity="0.94"/>
  <g id="DIAGRAM_MAIN">
    <g filter="url(#svgbc61efb6-shadow)">
      <rect id="ITEM_1_BG" x="170" y="180" width="480" height="388" rx="28" fill="var(--panel)" fill-opacity="0.98" stroke="var(--accent-1)" stroke-width="3"/>
      <rect x="170" y="180" width="480" height="18" rx="9" fill="var(--accent-1)" fill-opacity="0.55"/>
      <rect x="295" y="216" width="230" height="30" rx="15" fill="var(--accent-1)" fill-opacity="0.10"/>
      <circle id="ITEM_1_PAD" cx="410" cy="262" r="54" fill="var(--icon-pad-bg)" opacity="0.95" fill-opacity="0.9" stroke-width="2" stroke="var(--primary-text)"/>
      <circle id="ITEM_1_PAD_INNER" cx="410" cy="262" r="42.12" fill="var(--accent-2)" fill-opacity="0.22"/>
      <circle cx="410" cy="262" r="42" fill="none" stroke="var(--accent-1)" stroke-width="3" stroke-dasharray="6 4"/>
      <g id="ITEM_1_ICON" transform="translate(373, 225)" data-icon-size="74">
        <g transform="translate(-11.137142857142862,-11.137142857142862) scale(3.008571428571429)" vector-effect="non-scaling-stroke" fill="#f1f5f9" fill-opacity="1.0" stroke="none">
          <path fill="#f1f5f9" d="M20 28V6l-4-4l-4 4v22H2v2h28v-2Zm-6 0V6.828l2-2l2 2V28Z" vector-effect="non-scaling-stroke" stroke="none"/>
        </g>
      </g>
      <text id="ITEM_1_HEAD" x="410.0" y="328.0" font-weight="800" font-size="28" fill="var(--primary-text)" text-anchor="middle" data-bg-id="ITEM_1_BG" fill-opacity="1.0" style="font-size: 30px; font-family: Inter, Segoe UI, Kalam, Roboto, Helvetica, Arial, sans-serif; font-weight: 700; letter-spacing:-0.4px;" data-final-font-size="30">
        <tspan x="410.0" dy="42.97px">Older Civilization</tspan>
      </text>
      <rect id="ITEM_1_HEAD_FRAME" x="230" y="328" width="360" height="56" fill="none"/>
      <text id="ITEM_1_BODY" x="410.0" y="378.0" font-size="18" fill="var(--primary-text)" text-anchor="middle" data-bg-id="ITEM_1_BG" style="font-size: 26px; font-family: Inter, Segoe UI, Kalam, Roboto, Helvetica, Arial, sans-serif; font-weight: 400;" data-final-font-size="26">
        <tspan x="410.0" dy="47.53px">Martians imagined as ancient</tspan>
        <tspan x="410.0" dy="29.90px">and technologically advanced beings</tspan>
      </text>
      <rect id="ITEM_1_BODY_FRAME" x="195" y="378" width="430" height="156" fill="none"/>
    </g>
    <g filter="url(#svgbc61efb6-shadow)">
      <rect id="ITEM_2_BG" x="720" y="180" width="480" height="388" rx="28" fill="var(--panel)" fill-opacity="0.98" stroke="var(--accent-2)" stroke-width="3"/>
      <rect x="720" y="180" width="480" height="18" rx="9" fill="var(--accent-2)" fill-opacity="0.55"/>
      <rect x="845" y="216" width="230" height="30" rx="15" fill="var(--accent-2)" fill-opacity="0.10"/>
      <circle id="ITEM_2_PAD" cx="960" cy="262" r="54" fill="var(--icon-pad-bg)" opacity="0.95" fill-opacity="0.9" stroke-width="2" stroke="var(--primary-text)"/>
      <circle id="ITEM_2_PAD_INNER" cx="960" cy="262" r="42.12" fill="var(--accent-3)" fill-opacity="0.22"/>
      <circle cx="960" cy="262" r="42" fill="none" stroke="var(--accent-2)" stroke-width="3" stroke-dasharray="6 4"/>
      <g id="ITEM_2_ICON" transform="translate(923, 225)" data-icon-size="74">
        <g transform="translate(-8.305546218487398,-7.951596638655467) scale(3.77546218487395)" vector-effect="non-scaling-stroke" stroke-width="2.60" stroke-linecap="round" stroke-linejoin="round" stroke-opacity="1.0">
          <path d="M4.9 16.1C1 12.2 1 5.8 4.9 1.9" vector-effect="non-scaling-stroke" fill="none" stroke="#f1f5f9"/>
          <path d="M7.8 4.7a6.14 6.14 0 0 0-.8 7.5" vector-effect="non-scaling-stroke" fill="none" stroke="#f1f5f9"/>
          <circle cx="12" cy="9" r="2" vector-effect="non-scaling-stroke" fill="none" stroke="#f1f5f9"/>
          <path d="M16.2 4.8c2 2 2.26 5.11.8 7.47" vector-effect="non-scaling-stroke" fill="none" stroke="#f1f5f9"/>
          <path d="M19.1 1.9a9.96 9.96 0 0 1 0 14.1" vector-effect="non-scaling-stroke" fill="none" stroke="#f1f5f9"/>
          <path d="M9.5 18h5" vector-effect="non-scaling-stroke" fill="none" stroke="#f1f5f9"/>
          <path d="m8 22 4-11 4 11" vector-effect="non-scaling-stroke" fill="none" stroke="#f1f5f9"/>
        </g>
      </g>
      <text id="ITEM_2_HEAD" x="960.0" y="328.0" font-weight="800" font-size="28" fill="var(--primary-text)" text-anchor="middle" data-bg-id="ITEM_2_BG" fill-opacity="1.0" style="font-size: 30px; font-family: Inter, Segoe UI, Kalam, Roboto, Helvetica, Arial, sans-serif; font-weight: 700; letter-spacing:-0.4px;" data-final-font-size="30">
        <tspan x="960.0" dy="42.97px">Technological Signature</tspan>
      </text>
      <rect id="ITEM_2_HEAD_FRAME" x="780" y="328" width="360" height="56" fill="none"/>
      <text id="ITEM_2_BODY" x="960.0" y="378.0" font-size="18" fill="var(--primary-text)" text-anchor="middle" data-bg-id="ITEM_2_BG" style="font-size: 26px; font-family: Inter, Segoe UI, Kalam, Roboto, Helvetica, Arial, sans-serif; font-weight: 400;" data-final-font-size="26">
        <tspan x="960.0" dy="47.53px">Strange lines or signals interpreted</tspan>
        <tspan x="960.0" dy="29.90px">as non-human engineering</tspan>
      </text>
      <rect id="ITEM_2_BODY_FRAME" x="745" y="378" width="430" height="156" fill="none"/>
    </g>
    <g filter="url(#svgbc61efb6-shadow)">
      <rect id="ITEM_3_BG" x="1270" y="180" width="480" height="388" rx="28" fill="var(--panel)" fill-opacity="0.98" stroke="var(--accent-3)" stroke-width="3"/>
      <rect x="1270" y="180" width="480" height="18" rx="9" fill="var(--accent-3)" fill-opacity="0.55"/>
      <rect x="1395" y="216" width="230" height="30" rx="15" fill="var(--accent-3)" fill-opacity="0.10"/>
      <circle id="ITEM_3_PAD" cx="1510" cy="262" r="54" fill="var(--icon-pad-bg)" opacity="0.95" fill-opacity="0.9" stroke-width="2" stroke="var(--primary-text)"/>
      <circle id="ITEM_3_PAD_INNER" cx="1510" cy="262" r="42.12" fill="var(--accent-4)" fill-opacity="0.22"/>
      <circle cx="1510" cy="262" r="42" fill="none" stroke="var(--accent-3)" stroke-width="3" stroke-dasharray="6 4"/>
      <g id="ITEM_3_ICON" transform="translate(1473, 225)" data-icon-size="74">
        <g transform="translate(-12.920000000000005,-12.920000000000005) scale(4.16)" vector-effect="non-scaling-stroke" fill="#f1f5f9" fill-opacity="1.0" stroke="none">
          <path fill="#f1f5f9" d="M22 16H2v2h2v4h16v-4h2zm-11.56-1c-.25 0-.44-.19-.49-.44l-.38-3v-.06c0-.28.22-.5.5-.5H14c.27.04.46.29.43.56l-.38 3c-.05.25-.24.44-.49.44zM19 2l2.56 4.68c.04.1.05.21.05.32c0 .56-.45 1-1 1H19v7h-2V8h-4v2h-2V8H7v7H5V8H3.62a.998.998 0 0 1-.9-1.45L5 2z" vector-effect="non-scaling-stroke" stroke="none"/>
        </g>
      </g>
      <text id="ITEM_3_HEAD" x="1510.0" y="328.0" font-weight="800" font-size="28" fill="var(--primary-text)" text-anchor="middle" data-bg-id="ITEM_3_BG" fill-opacity="1.0" style="font-size: 30px; font-family: Inter, Segoe UI, Kalam, Roboto, Helvetica, Arial, sans-serif; font-weight: 700; letter-spacing:-0.4px;" data-final-font-size="30">
        <tspan x="1510.0" dy="42.97px">Planetary Crisis</tspan>
      </text>
      <rect id="ITEM_3_HEAD_FRAME" x="1330" y="328" width="360" height="56" fill="none"/>
      <text id="ITEM_3_BODY" x="1510.0" y="378.0" font-size="18" fill="var(--primary-text)" text-anchor="middle" data-bg-id="ITEM_3_BG" style="font-size: 26px; font-family: Inter, Segoe UI, Kalam, Roboto, Helvetica, Arial, sans-serif; font-weight: 400;" data-final-font-size="26">
        <tspan x="1510.0" dy="47.53px">Inhabitants driven by environmental</tspan>
        <tspan x="1510.0" dy="29.90px">decline and water scarcity</tspan>
      </text>
      <rect id="ITEM_3_BODY_FRAME" x="1295" y="378" width="430" height="156" fill="none"/>
    </g>
    <g filter="url(#svgbc61efb6-shadow)">
      <rect id="ITEM_4_BG" x="260" y="580" width="660" height="370" rx="30" fill="var(--panel)" fill-opacity="0.98" stroke="var(--accent-4)" stroke-width="3"/>
      <rect x="260" y="590" width="660" height="18" rx="9" fill="var(--accent-4)" fill-opacity="0.55"/>
      <rect x="430" y="628" width="320" height="32" rx="16" fill="var(--accent-4)" fill-opacity="0.10"/>
      <circle id="ITEM_4_PAD" cx="590" cy="684" r="54" fill="var(--icon-pad-bg)" opacity="0.95" fill-opacity="0.9" stroke-width="2" stroke="var(--primary-text)"/>
      <circle id="ITEM_4_PAD_INNER" cx="590" cy="684" r="42.12" fill="var(--accent-5)" fill-opacity="0.22"/>
      <circle cx="590" cy="684" r="42" fill="none" stroke="var(--accent-4)" stroke-width="3" stroke-dasharray="6 4"/>
      <g id="ITEM_4_ICON" transform="translate(551, 645)" data-icon-size="78">
        <g transform="translate(-9.137142857142862,-7.632857142857148) scale(3.008571428571429)">
          <path fill-rule="evenodd" clip-rule="evenodd" d="M10 8.83354V3.52275C10 3.23233 9.75879 3 9.46734 3H6.54271C6.24121 3 6 3.23233 6 3.52275V12.1687L5 13.0025V29.0025H27V14.0025L16.07 3.77246L10 8.83354Z" fill="#F3C07B"/>
          <path d="M15.92 27.0025H8.08C8.04 27.0025 8 26.9625 8 26.9225V16.3925C8 15.6425 8.61 15.0325 9.36 15.0325H14.65C15.4 15.0325 16.01 15.6425 16.01 16.3925V26.9225C16 26.9625 15.96 27.0025 15.92 27.0025Z" fill="#8C5543"/>
          <path d="M14.5 21.0024C14.7761 21.0024 15 20.7786 15 20.5024C15 20.2263 14.7761 20.0024 14.5 20.0024C14.2239 20.0024 14 20.2263 14 20.5024C14 20.7786 14.2239 21.0024 14.5 21.0024Z" fill="#402A32"/>
          <path d="M15.96 28.0024H8C7.45 28.0024 7 27.5524 7 27.0024C7 26.4524 7.45 26.0024 8 26.0024H15.96C16.51 26.0024 16.96 26.4524 16.96 27.0024C16.96 27.5524 16.51 28.0024 15.96 28.0024Z" fill="#D3D3D3"/>
          <path d="M30 29.0024H2V28.9124C2 27.8524 2.85 27.0024 3.91 27.0024H28.09C29.14 27.0024 30 27.8524 30 28.9124V29.0024Z" fill="#00F397"/>
          <path d="M16.88 2.3525L29.64 14.9225C30.12 15.3925 30.12 16.1525 29.64 16.6125C29.17 17.0825 28.4 17.0825 27.92 16.6125L16.02 4.8925L4.08 16.6525C3.61 17.1225 2.84 17.1225 2.36 16.6525C1.88 16.1825 1.88 15.4225 2.36 14.9525L15.16 2.3525C15.63 1.8825 16.4 1.8825 16.88 2.3525Z" fill="#F8312F"/>
          <path d="M23.14 21.0024H18.86C18.38 21.0024 18 20.6224 18 20.1424V15.8624C18 15.3924 18.38 15.0024 18.86 15.0024H23.14C23.61 15.0024 24 15.3824 24 15.8624V20.1424C24 20.6224 23.62 21.0024 23.14 21.0024Z" fill="#83CBFF"/>
        </g>
      </g>
      <text id="ITEM_4_HEAD" x="590.0" y="754.0" font-weight="800" font-size="30" fill="var(--primary-text)" text-anchor="middle" data-bg-id="ITEM_4_BG" fill-opacity="1.0" style="font-size: 30px; font-family: Inter, Segoe UI, Kalam, Roboto, Helvetica, Arial, sans-serif; font-weight: 700; letter-spacing:-0.4px;" data-final-font-size="30">
        <tspan x="590.0" dy="44.21px">Near Neighbor</tspan>
      </text>
      <rect id="ITEM_4_HEAD_FRAME" x="380" y="754" width="420" height="58" fill="none"/>
      <text id="ITEM_4_BODY" x="595.0" y="798.0" font-size="18" fill="var(--primary-text)" text-anchor="middle" data-bg-id="ITEM_4_BG" style="font-size: 26px; font-family: Inter, Segoe UI, Kalam, Roboto, Helvetica, Arial, sans-serif; font-weight: 400;" data-final-font-size="26">
        <tspan x="595.0" dy="45.54px">Mars proximity makes contact and invasion</tspan>
        <tspan x="595.0" dy="29.90px">feel plausible</tspan>
      </text>
      <rect id="ITEM_4_BODY_FRAME" x="360" y="798" width="470" height="148" fill="none"/>
    </g>
    <g filter="url(#svgbc61efb6-shadow)">
      <rect id="ITEM_5_BG" x="1000" y="580" width="660" height="370" rx="30" fill="var(--panel)" fill-opacity="0.98" stroke="var(--accent-5)" stroke-width="3"/>
      <rect x="1000" y="590" width="660" height="18" rx="9" fill="var(--accent-5)" fill-opacity="0.55"/>
      <rect x="1170" y="628" width="320" height="32" rx="16" fill="var(--accent-5)" fill-opacity="0.10"/>
      <circle id="ITEM_5_PAD" cx="1330" cy="684" r="54" fill="var(--icon-pad-bg)" opacity="0.95" fill-opacity="0.9" stroke-width="2" stroke="var(--primary-text)"/>
      <circle id="ITEM_5_PAD_INNER" cx="1330" cy="684" r="42.12" fill="var(--accent-6)" fill-opacity="0.22"/>
      <circle cx="1330" cy="684" r="42" fill="none" stroke="var(--accent-5)" stroke-width="3" stroke-dasharray="6 4"/>
      <g id="ITEM_5_ICON" transform="translate(1291, 645)" data-icon-size="78">
        <g transform="translate(-9.137142857142862,-6.128571428571433) scale(0.3760714285714286)" vector-effect="non-scaling-stroke" stroke-width="2.65" stroke-linecap="round" stroke-linejoin="round" stroke-opacity="1.0">
          <path d="M24,176V64A24,24,0,0,1,48,40H64V152H48a24,24,0,0,0,0,48H232V64H64" fill="none" stroke="#f1f5f9" vector-effect="non-scaling-stroke"/>
          <line x1="128" y1="96" x2="128" y2="160" fill="none" stroke="#f1f5f9" vector-effect="non-scaling-stroke"/>
          <line x1="168" y1="96" x2="168" y2="160" fill="none" stroke="#f1f5f9" vector-effect="non-scaling-stroke"/>
          <line x1="104" y1="112" x2="192" y2="112" fill="none" stroke="#f1f5f9" vector-effect="non-scaling-stroke"/>
          <line x1="104" y1="144" x2="192" y2="144" fill="none" stroke="#f1f5f9" vector-effect="non-scaling-stroke"/>
        </g>
      </g>
      <text id="ITEM_5_HEAD" x="1330.0" y="754.0" font-weight="800" font-size="30" fill="var(--primary-text)" text-anchor="middle" data-bg-id="ITEM_5_BG" fill-opacity="1.0" style="font-size: 30px; font-family: Inter, Segoe UI, Kalam, Roboto, Helvetica, Arial, sans-serif; font-weight: 700; letter-spacing:-0.4px;" data-final-font-size="30">
        <tspan x="1330.0" dy="44.21px">Infrastructural Design</tspan>
      </text>
      <rect id="ITEM_5_HEAD_FRAME" x="1120" y="754" width="420" height="58" fill="none"/>
      <text id="ITEM_5_BODY" x="1335.0" y="798.0" font-size="18" fill="var(--primary-text)" text-anchor="middle" data-bg-id="ITEM_5_BG" style="font-size: 26px; font-family: Inter, Segoe UI, Kalam, Roboto, Helvetica, Arial, sans-serif; font-weight: 400;" data-final-font-size="26">
        <tspan x="1335.0" dy="45.54px">Martians viewed as engineers managing</tspan>
        <tspan x="1335.0" dy="29.90px">global resources and systems</tspan>
      </text>
      <rect id="ITEM_5_BODY_FRAME" x="1100" y="798" width="470" height="148" fill="none"/>
    </g>
  </g>
</svg>
